<svg xmlns="http://www.w3.org/2000/svg" xmlns:xlink="http://www.w3.org/1999/xlink" width="105.79" height="147.02" viewBox="0 0 105.79 147.02"><defs><linearGradient id="linear-gradient" x1="52.28" y1="122.14" x2="53.26" y2="13.73" gradientUnits="userSpaceOnUse"><stop offset="0" stop-opacity="0.3"/><stop offset="0.77"/></linearGradient></defs><title>Head (2)</title><g id="Layer_2" data-name="Layer 2"><g id="Layer_1-2" data-name="Layer 1"><g id="Head"><path id="Hair" d="M2.37,23a75.75,75.75,0,0,1,8-11,28.45,28.45,0,0,1,5-5c3.43-2.45,6.8-3.13,13-4C37.63,1.74,45,1.2,47.37,1c9.1-.65,13.64-1,15-1a98.33,98.33,0,0,1,23,2c8.73,1.89,13.1,2.83,16,6,7.45,8.14,3.28,22.12,3,23a27.76,27.76,0,0,1-4,8,45.65,45.65,0,0,0-2,5c-2.46,7.43-1.53,12.31-3,21-.47,2.82-1.13,6.57-2,11a76,76,0,0,0-2-25c-1.11-4.35-2.11-6.42-4-8-2.42-2-4.86-1.94-17-2-1.44,0-6-.28-15-1-4.67-.37-8.49-.74-11-1a62.62,62.62,0,0,1-6,4c-3,1.79-4.49,2.3-7,4a43,43,0,0,0-5,4V71a14.43,14.43,0,0,0-8,3,9,9,0,0,0-2,2c-2.2,3.24-1.21,7.61,0,13a43.4,43.4,0,0,1,.94,6.15c0,.14.05.9.06,1.85a49.33,49.33,0,0,1-1,10,21.51,21.51,0,0,1-2,6.65,21,21,0,0,1-2,3.35c0-3,0-7.15,0-12,0-8.64-.11-11.38-1-15a36,36,0,0,0-3-8,211.81,211.81,0,0,0-4-30C1.54,38.38-1.58,30.39,2.37,23Z" fill="url(#linear-gradient)"/><path id="Face" d="M33.37,45a35.58,35.58,0,0,1-5,3c-1.2.67-2.94,1.67-5,3-.19,3.13-.51,6.48-1,10-.54,3.95-1.23,7.63-2,11l-3,2c-.64-5.39-4.85-9.11-9-9s-7,4.11-8,7c-.59,1.79-.39,3.52,0,7a33.5,33.5,0,0,0,3,11,11.29,11.29,0,0,0,4,5,5.58,5.58,0,0,0,3,1,5.12,5.12,0,0,0,3-1,56.47,56.47,0,0,1,0,11c-.22,2.26-.72,6-1,11,0,.86-.07,1.55-.09,2.24-.08,3.86,0,6.7.09,7.76.12,2.35.19,5.9,0,11a28.63,28.63,0,0,0,8,6,29.7,29.7,0,0,0,14,3,34.62,34.62,0,0,0,14-3V124a48,48,0,0,0,12,3c2.89.34,7.34.86,11,0,11.27-2.62,18.3-18.87,20-30,.69-4.49.42-7.55,2-20,.42-3.24.64-4.61,1-8a128.74,128.74,0,0,0,1-17c-.14-7-.21-10.44-2-12-2.73-2.38-6-.06-15,0a36.09,36.09,0,0,1-3.7-.14A102.73,102.73,0,0,1,62.37,38c-4-.93-11.14-1.49-25,0a7.89,7.89,0,0,1-1,4A10.06,10.06,0,0,1,33.37,45Z" fill="#ffaf80"/><ellipse id="Eye1" cx="57.37" cy="71.52" rx="3" ry="5.5" opacity="0.9"/><ellipse id="Eye2" cx="87.37" cy="71.02" rx="3" ry="5" opacity="0.9"/><path id="Glasses" d="M102.37,63c-1.19-1.53-3.55-1.69-8-2a40.7,40.7,0,0,0-5,0c-5.65.24-7.59.83-12,1-3.59.14-6.49.06-8,0-5.84-.23-6.8-.8-13-1-4-.13-6.37,0-9,1a17.6,17.6,0,0,0-3.94,2.08q-5.49,1.25-11,2.46-8.05,1.78-16,3.46l1,2,25-4h1a4.65,4.65,0,0,1,1,1,5.64,5.64,0,0,1,1,3c.41,4.12.71,6.76,2.5,8.5a2.87,2.87,0,0,0,.53.45c1.1.7,3,.54,9.47.55,5.93,0,7.57-.06,8.51-.62a2.93,2.93,0,0,0,.49-.38C69,78.64,69,75.79,69.37,73a27.39,27.39,0,0,1,2-7,6.57,6.57,0,0,1,2.5-.5,6.5,6.5,0,0,1,2.5.5,56.66,56.66,0,0,1,2,7c1.16,5.33.64,6.64,2,8,1,1,2,1.06,11,1,6,0,7-.09,8-1,1.29-1.15,1.06-2.3,2-8C102.57,65.74,103.48,64.44,102.37,63Zm-34,9c-.92,3.86-1.38,5.79-3,7-.48.36-1.35.89-7,1-5.15.11-7.76.14-9-1-.81-.74-1.2-2.83-2-7-.94-5-.73-6.2,0-7s1.48-.82,3-1a57.94,57.94,0,0,1,15,0c1.51.18,2.35.31,3,1C69.68,66.4,69.13,68.85,68.37,72Zm32-1c-.73,5.06-1.1,7.58-3,9-1.24.93-3.16,1-7,1-4.4.06-6.6.08-8-1-2-1.54-2.34-4.12-3-9-.35-2.66-.53-4,0-5,1.47-2.73,5.83-2.85,11-3,5-.14,8.54-.24,10,2C101.08,66.1,100.85,67.76,100.37,71Z"/><g id="Expression"><path id="Brow2" d="M47.37,63a9.62,9.62,0,0,1,5-7,14.34,14.34,0,0,1,10-1,14.56,14.56,0,0,1,4,2c1.13.72,1.7,1.22,2,2,.2.51.48,1.61,0,2-.68.57-2.22-.94-5-2a13.17,13.17,0,0,0-6-1c-2.36.24-4.11,1.28-7,3C49.08,61.79,48.06,62.51,47.37,63Z" opacity="0.9"/><path id="Brow1" d="M80.37,61a7.35,7.35,0,0,1,2-4,7.94,7.94,0,0,1,4-2,11.05,11.05,0,0,1,5,0c1.7.34,3.43.7,4,2l0,0c.47,1.09.46,2.53,0,3-.77.72-2.55-1.52-6-2a11.09,11.09,0,0,0-6,1A12.34,12.34,0,0,0,80.37,61Z" opacity="0.9"/><path id="Nose" d="M75.37,70a9.82,9.82,0,0,0,1,5c.49.94.74,1,3,4,1.62,2.16,2.12,3,2,4a3.86,3.86,0,0,1-1,2,7.21,7.21,0,0,1-3,2,14.83,14.83,0,0,1-3,1" fill="none" stroke="#c69c6d" stroke-miterlimit="10" stroke-width="2"/><path id="Mouth" d="M59.37,93a17.93,17.93,0,0,0,4,4,17.08,17.08,0,0,0,7,3,19.42,19.42,0,0,0,6,0,27.42,27.42,0,0,0,5-1" fill="none" stroke="#c69c6d" stroke-linecap="round" stroke-miterlimit="10" stroke-width="2"/><path id="Chin" d="M61.37,104a16.3,16.3,0,0,0,6,2,15.62,15.62,0,0,0,4,0" fill="none" stroke="#c69c6d" stroke-linecap="round" stroke-miterlimit="10"/></g><path id="Ear" d="M13.05,74.85c.5-.9-1.39-3.92-4.11-4.27A4.93,4.93,0,0,0,5.07,72a5.6,5.6,0,0,0-1.37,3.6c-.14,1.54.16,2.33,1.14,5.79,1,3.64,1.45,5.39,2.75,7.87,1.06,2,1.43,2.1,1.59,2.07.68-.12,1.1-2.52.57-4.63-.32-1.28-.72-1.4-1.48-3-.68-1.42-2.33-4.89-1-6.72a5.16,5.16,0,0,1,3-1.52C12,74.94,12.78,75.33,13.05,74.85Z" fill="#c69c6d"/></g></g></g></svg>