<svg xmlns="http://www.w3.org/2000/svg" width="52.45" height="56.43" viewBox="0 0 52.45 56.43"><title>Left Hand</title><g id="Layer_2" data-name="Layer 2"><g id="Layer_1-2" data-name="Layer 1"><g id="Upper_Body" data-name="Upper Body"><g id="Left_Hand" data-name="Left Hand"><path id="Left_Hand_Palm" data-name="Left Hand Palm" d="M15,56.33a63.2,63.2,0,0,0,7.8-3.49c.25-.13.62-.32,1.08-.58a66.88,66.88,0,0,0,7.6-5A91.82,91.82,0,0,0,40,39.76C50.63,29.67,51.74,27.63,51.18,26.05a2.89,2.89,0,0,0-2.12-1.88c-1.24-.16-2.11,1.09-4.8,3.3-1.2,1-2.22,1.73-2.88,2.19-1.66-.69-2-1.4-2.11-1.88-.15-.93.76-1.78,6-6.16l1.57-1.32C52,15.92,52.5,14.9,52.44,14A2.31,2.31,0,0,0,51.32,12c-1.22-.55-2.94.9-5.8,3.36-2.07,1.78-2.59,2.53-4.75,4.3-1.18,1-2.2,1.72-2.87,2.18A1.41,1.41,0,1,1,35.78,20a55.14,55.14,0,0,1,4.62-6.29c2.8-3.3,4.69-5.3,4.69-5.3,2.69-2.86,4-3.94,3.68-5.24a2.67,2.67,0,0,0-2.12-1.87c-1.2-.19-2.3.68-5.74,4.36-2.13,2.28-3.63,4.09-3.75,4.24-1.47,1.78-3.66,4.34-6.55,7.41a3.52,3.52,0,0,1-3.18-2.81,24.26,24.26,0,0,1,2.68-5.17C32.55,5.77,35,4.37,34.68,2c0-.1-.21-1.57-1.12-1.93s-2.24.59-3.87,2.24a37.49,37.49,0,0,0-5.56,7.36c-2.68,4.38-4.32,7.23-7.37,10.47-.31.32-2.39,2.52-2.88,2.18-.69-.49,3.36-5.07,2.38-10.17-.49-2.55-2.19-5-3.3-4.8s-1,2.76-2.56,7.17c-1.22,3.39-1.82,3.3-3.56,7.23C5.22,25.4,5.25,26.55,3.46,32,2.75,34.14,1.63,37.34,0,41.22-.23,47,2.37,52.28,6.86,54.82A13.35,13.35,0,0,0,15,56.33Z" fill="#ffaf80"/><path id="Palm_Print" data-name="Palm Print" d="M8,46.45a18.83,18.83,0,0,0,2.27-10.19,18.22,18.22,0,0,0-1.43-5.91" fill="none" stroke="#c69c6d" stroke-miterlimit="10"/><path id="Palm_Print-2" data-name="Palm Print" d="M27.53,45.53A24.08,24.08,0,0,0,20.75,35a23.7,23.7,0,0,0-7.35-4.48" fill="none" stroke="#c69c6d" stroke-miterlimit="10"/></g></g></g></g></svg>