<svg xmlns="http://www.w3.org/2000/svg" width="110.01" height="136.51" viewBox="0 0 110.01 136.51"><title>Left Upper Arm</title><g id="Layer_2" data-name="Layer 2"><g id="Layer_1-2" data-name="Layer 1"><g id="Upper_Body" data-name="Upper Body"><path id="Left_Upper_Arm" data-name="Left Upper Arm" d="M44,2.85A236.84,236.84,0,0,1,62.54,24.12L63.93,26A290,290,0,0,1,83.88,57.11,362.36,362.36,0,0,1,105.76,106a20.77,20.77,0,0,1,4,9.23c.24,1.51,1.62,11.26-5.34,17.22-3.61,3.1-9.3,5-14.52,3.53-2.6-.74-5.34-2.4-17.61-22.58-4.86-8-5.78-10-9-14.11a135.54,135.54,0,0,0-11-11.81C48.39,83.61,45.55,81,39.86,75.81,31,67.68,29.44,66.73,25.17,62.2A105.3,105.3,0,0,1,17.26,53,110.85,110.85,0,0,1,7.32,36.8C2.13,27.1-.46,22.18.07,19,1.21,12,8.18,7.45,11.63,5.19A29.34,29.34,0,0,1,21.88.73,39.78,39.78,0,0,1,44,2.85Z" fill="#197bbd"/></g></g></g></svg>