<svg xmlns="http://www.w3.org/2000/svg" width="196.62" height="400" viewBox="0 0 196.62 400"><title>Lower Body</title><g id="Layer_2" data-name="Layer 2"><g id="Layer_1-2" data-name="Layer 1"><g id="Lower_Body" data-name="Lower Body"><path id="Socks1" d="M102.61,376c2.47,4.57,10.15,4.75,21,5,9.07.21,15.25.36,17-3,1.47-2.84-1.72-5.27-6-16-4.05-10.16-2.88-12.2-6-15-6.26-5.59-19.1-4.68-23,1-1.72,2.51-.32,3.91-1,12C103.7,370.76,100.83,372.72,102.61,376Z" fill="#0e1213"/><path id="Socks2" d="M10.61,341v25c2.87.09,5.87.1,9,0a147,147,0,0,0,20-2V342Z" fill="#0e1213"/><path id="Right_Shoe" data-name="Right Shoe" d="M11.61,364a50.13,50.13,0,0,1-4,5c-2.34,2.55-2.92,2.64-4,4-1.92,2.41-2.31,5.31-3,11-.64,5.26-1,7.88,0,10,1.69,3.72,5.38,5.39,7,6h32a19.32,19.32,0,0,0,5-7c.57-1.39,2.47-6,1-11-1-3.35-2.12-3.28-4-7-2.63-5.18,0-7.3-2-11-2.72-5.11-10.83-7-17-6A19.86,19.86,0,0,0,11.61,364Z" fill="#624a2e"/><path id="Left_Shoe" data-name="Left Shoe" d="M101.61,372c.86-.47,1.31-.36,10,1,6.51,1,8.32,1.28,11,1a15.62,15.62,0,0,0,7-2,14.49,14.49,0,0,0,6-8,33.27,33.27,0,0,1,8,3,36.46,36.46,0,0,1,8,6c4.22,3.72,14.2,5.53,34,9,3.1.54,8.16,1.4,10,5a14,14,0,0,1,1,6,16.11,16.11,0,0,1-1,5h-97a51,51,0,0,1-1-11C97.71,381,97.82,374.06,101.61,372Z" fill="#624a2e"/><path id="Pants" d="M43.61,16c16,1.83,26.33,2.92,40,1a147.32,147.32,0,0,0,22-5,195.84,195.84,0,0,0,31-12c.62,7.88,1.62,20.06,3,35,2.33,25.27,3.13,30,4,42,1.2,16.61.75,22.39,1,54,.36,47.76,1.44,41.2,1,61-.62,27.6-3,51.32-5,72-1.17,11.82-2.06,19.4-3,29.59-.53,5.82-.89,10.58-1,12.41-.64,8.5-1.57,25.67-1,54a102.34,102.34,0,0,0-11,3c-6.27,2.09-8.62,3.55-13,4a25.7,25.7,0,0,1-10-1c-1.29-40-2.3-69.69-3-90-.83-23.84-1.1-31.27-1-44,.16-21.09,1.16-29.33,1.23-41.55,0-4.67-.1-7.94-.23-12.45-.49-16.54-1.68-32-4-54-4.55-43.11-7.31-53.55-14-65a93.76,93.76,0,0,0-6-9,71,71,0,0,0-5,10c-6.68,16.44-5.43,31.05-5,38,.19,3.19-1,22.81-4,62-1,13.15-2.4,31-5,54-1.18,10.45-3.12,25-7,54-3.81,28.51-5,36.81-6,51-1,15.27-1.11,27.81-1,36a93.36,93.36,0,0,0-22-4,91.6,91.6,0,0,0-11,0c.15-20.05.25-47.81,0-81-.29-37.25-.73-46-1-86-.28-40.46-.41-60.69,0-83,.3-16.43.91-39.66,1-75,0-6.73,0-12.28,0-16A315.32,315.32,0,0,0,43.61,16Z" fill="#0e1213"/></g></g></g></svg>