<svg width="401" height="401" viewBox="0 0 401 401" fill="none" xmlns="http://www.w3.org/2000/svg">
<path fill-rule="evenodd" clip-rule="evenodd" d="M240.015 136.354V160.59H264.25L240.015 136.354ZM160.015 160.59L160.015 40.5898C160.015 20.1839 175.295 3.34686 195.037 0.896457C207.075 -0.822224 219.746 2.94849 229.006 12.2086L388.812 172.015C404.433 187.636 404.433 212.962 388.812 228.583C386.069 231.327 383.026 233.589 379.788 235.369C373.956 238.692 367.207 240.59 360.015 240.59H136.361L228.299 332.528C243.92 348.149 243.92 373.476 228.299 389.097C212.678 404.717 187.351 404.717 171.73 389.097L11.9243 229.29C8.43337 225.799 5.72257 221.824 3.79191 217.58C1.36889 212.423 0.0147556 206.665 0.0147488 200.59C0.014749 178.498 17.9234 160.59 40.0147 160.59L160.015 160.59Z" fill="url(#paint0_radial_1_13)"/>
<defs>
<radialGradient id="paint0_radial_1_13" cx="0" cy="0" r="1" gradientUnits="userSpaceOnUse" gradientTransform="translate(200.216 200.5) rotate(-45) scale(737.914 2452.68)">
<stop stop-color="#00ADF0"/>
<stop offset="0.708333" stop-color="#007CC2" stop-opacity="0.489583"/>
<stop offset="1" stop-color="#007CC2" stop-opacity="0"/>
</radialGradient>
</defs>
</svg>
