<svg id="Layer_1" data-name="Layer 1" xmlns="http://www.w3.org/2000/svg" xmlns:xlink="http://www.w3.org/1999/xlink" width="366.81" height="803.02" viewBox="0 0 366.81 803.02"><defs><linearGradient id="linear-gradient" x1="916.91" y1="328.11" x2="917.88" y2="219.71" gradientUnits="userSpaceOnUse"><stop offset="0" stop-opacity="0.3"/><stop offset="0.77"/></linearGradient></defs><title>char</title><g opacity="0.5"><ellipse cx="144" cy="773.52" rx="144" ry="29.5"/></g><g id="Lower_Body" data-name="Lower Body"><path id="Socks1" d="M938,961c2.47,4.57,10.16,4.75,21,5,9.07.21,15.25.36,17-3,1.48-2.84-1.72-5.27-6-16-4-10.16-2.87-12.2-6-15-6.25-5.59-19.09-4.68-23,1-1.72,2.51-.32,3.91-1,12C939.09,955.76,936.22,957.72,938,961Z" transform="translate(-777 -205.98)" fill="#0e1213"/><path id="Socks2" d="M846,926v25c2.87.09,5.88.1,9,0a147,147,0,0,0,20-2V927Z" transform="translate(-777 -205.98)" fill="#0e1213"/><path id="Right_Shoe" data-name="Right Shoe" d="M847,949a47.34,47.34,0,0,1-4,5c-2.33,2.55-2.91,2.64-4,4-1.92,2.41-2.31,5.31-3,11-.64,5.26-1,7.88,0,10,1.69,3.72,5.38,5.39,7,6h32a19.2,19.2,0,0,0,5-7c.58-1.39,2.47-6,1-11-1-3.35-2.12-3.28-4-7-2.62-5.18,0-7.3-2-11-2.72-5.11-10.83-7-17-6A19.9,19.9,0,0,0,847,949Z" transform="translate(-777 -205.98)" fill="#624a2e"/><path id="Left_Shoe" data-name="Left Shoe" d="M937,957c.86-.47,1.31-.36,10,1,6.52,1,8.33,1.28,11,1a15.62,15.62,0,0,0,7-2,14.49,14.49,0,0,0,6-8,33,33,0,0,1,8,3,36.2,36.2,0,0,1,8,6c4.22,3.72,14.2,5.53,34,9,3.1.54,8.17,1.4,10,5a13.82,13.82,0,0,1,1,6,15.82,15.82,0,0,1-1,5H934a51.68,51.68,0,0,1-1-11C933.1,966,933.22,959.06,937,957Z" transform="translate(-777 -205.98)" fill="#624a2e"/><path id="Pants" d="M879,601c16,1.83,26.33,2.92,40,1a147.32,147.32,0,0,0,22-5,195.45,195.45,0,0,0,31-12c.62,7.88,1.62,20.06,3,35,2.33,25.27,3.13,30,4,42,1.21,16.61.76,22.39,1,54,.37,47.76,1.44,41.2,1,61-.62,27.6-3,51.32-5,72-1.17,11.82-2.06,19.4-3,29.59-.52,5.82-.88,10.58-1,12.41-.64,8.5-1.57,25.67-1,54a103,103,0,0,0-11,3c-6.27,2.09-8.62,3.55-13,4a25.72,25.72,0,0,1-10-1c-1.29-40-2.3-69.69-3-90-.83-23.84-1.1-31.27-1-44,.16-21.09,1.16-29.33,1.23-41.55,0-4.67-.1-7.94-.23-12.45-.49-16.54-1.68-32-4-54-4.54-43.11-7.3-53.55-14-65a90.11,90.11,0,0,0-6-9,72.08,72.08,0,0,0-5,10c-6.68,16.44-5.43,31-5,38,.19,3.19-1,22.81-4,62-1,13.15-2.4,31-5,54-1.18,10.45-3.12,25-7,54-3.81,28.51-5,36.81-6,51-1,15.27-1.1,27.81-1,36a93.36,93.36,0,0,0-22-4,91.6,91.6,0,0,0-11,0c.15-20,.25-47.81,0-81-.28-37.25-.73-46-1-86-.27-40.46-.41-60.69,0-83,.3-16.43.92-39.66,1-75,0-6.73,0-12.28,0-16A315.32,315.32,0,0,0,879,601Z" transform="translate(-777 -205.98)" fill="#0e1213"/></g><g id="Upper_Body" data-name="Upper Body"><path id="Torso" d="M860,346a128.85,128.85,0,0,0-35,13,142.16,142.16,0,0,0-10,36,189,189,0,0,1,18,31,184,184,0,0,1,10,27c5.84,20.55,6,37.43,6,49,0,16.39-1.81,27.91-5,48-3,18.86-6.41,34.3-9,45a185.24,185.24,0,0,0,34,10,162.69,162.69,0,0,0,45,3c18.54-1.43,32.37-5.85,42-9a208.33,208.33,0,0,0,25-10c-.58-17.81-1.91-32.23-3-42-2.3-20.68-3.94-24.25-6-45-2-20.33-.45-11.45-3-40-.73-8.15-1.45-15.35,0-25,.69-4.56,1.65-6,4-17,1.2-5.59,1.8-8.39,2-10,.69-5.45-.07-9.13-6-29-4.31-14.42-5.6-18.15-9-23a49.69,49.69,0,0,0-7-8,335.63,335.63,0,0,0-50-6C886.48,343.28,874.94,342.83,860,346Z" transform="translate(-777 -205.98)" fill="#197bbd"/><path id="Right_Upper_Arm" data-name="Right Upper Arm" d="M812,403c-3.39,9.83-5.76,19.87-9,43-1.82,13-2.74,19.51-3,24a170.87,170.87,0,0,0,2,38c2.19,5.93,7.2,10.25,13,11,7.67,1,15.63-4.37,18-13a69.63,69.63,0,0,1,0-16,85.09,85.09,0,0,1,6-22c1.29-3.3,2.41-5.74,3-7,12.34-26.48,20.28-32.77,20-44-.25-10.05-7-21.5-18-26-14.24-5.84-27.81,3.18-29,4C814.29,396.75,813.19,399.54,812,403Z" transform="translate(-777 -205.98)" fill="#197bbd"/><path id="Right_Lower_Arm" data-name="Right Lower Arm" d="M820,500a25,25,0,0,0-18,5,194.58,194.58,0,0,0,5,40c.93,4,3.38,11.32,8,26,1.54,4.9,2.51,7.93,4,12,5.11,14,8.62,19.16,13,23a33.5,33.5,0,0,0,4,3,81.51,81.51,0,0,1,7-5c2.45-1.56,4.81-2.88,7-4-1-7.66-2.18-13.85-3-18-2.44-12.38-3.9-15.81-7-31-1.22-6-2-10.52-3-16-2.11-11.84-2.74-16.82-3-19-.5-4.14-.81-7.59-1-10A24.36,24.36,0,0,0,820,500Z" transform="translate(-777 -205.98)" fill="#197bbd"/><path id="Right_Hand" data-name="Right Hand" d="M836,609a31.36,31.36,0,0,0,2,10c.45,1.16,2.3,4.44,6,11,0,0,1.22,2.15,3,5,1.07,1.7,1.55,2.39,2,3,2,2.62,2.93,3.93,4,4,1.64.1,3.17-2.66,5-7,2-4.7,3.63-9.46,6-20,1.16-5.15,1.21-5.92,1-7-1.23-6.27-8.63-9.68-12-11-2.91,1.82-5.92,3.81-9,6C841.16,605,838.49,607,836,609Z" transform="translate(-777 -205.98)" fill="#ffaf80"/><path id="Left_Upper_Arm" data-name="Left Upper Arm" d="M956.54,355.43A235.44,235.44,0,0,1,975.1,376.7c.4.52.86,1.12,1.39,1.83a289,289,0,0,1,20,31.16,362.4,362.4,0,0,1,21.88,48.9,20.89,20.89,0,0,1,4,9.23c.23,1.51,1.62,11.27-5.34,17.23-3.61,3.09-9.31,5-14.52,3.53-2.6-.74-5.34-2.4-17.61-22.59-4.87-8-5.79-10-9.05-14.1a134.12,134.12,0,0,0-11-11.81c-3.85-3.89-6.7-6.49-12.38-11.69-8.91-8.14-10.42-9.09-14.69-13.61a104.85,104.85,0,0,1-7.91-9.24,111.47,111.47,0,0,1-10-16.16c-5.19-9.71-7.77-14.62-7.24-17.82,1.14-7,8.11-11.54,11.56-13.8a29.35,29.35,0,0,1,10.25-4.45A39.69,39.69,0,0,1,956.54,355.43Z" transform="translate(-777 -205.98)" fill="#197bbd"/><g id="Left_Hand" data-name="Left Hand"><path id="Left_Hand_Palm" data-name="Left Hand Palm" d="M1106.34,452.26a63.87,63.87,0,0,0,7.8-3.49c.25-.13.62-.32,1.08-.58a65.75,65.75,0,0,0,7.6-5,93.2,93.2,0,0,0,8.55-7.54c10.63-10.09,11.74-12.13,11.18-13.71a2.88,2.88,0,0,0-2.12-1.87c-1.24-.16-2.12,1.08-4.8,3.3-1.2,1-2.22,1.72-2.88,2.18-1.66-.69-2-1.4-2.11-1.88-.15-.92.76-1.77,6-6.16l1.57-1.31c5.16-4.39,5.68-5.41,5.62-6.36a2.3,2.3,0,0,0-1.12-1.93c-1.23-.55-2.94.89-5.8,3.36-2.07,1.78-2.59,2.52-4.75,4.3-1.19,1-2.2,1.71-2.87,2.18a1.42,1.42,0,0,1-2.12-1.88,56.07,56.07,0,0,1,4.62-6.29c2.8-3.3,4.69-5.3,4.69-5.3,2.68-2.86,4-3.93,3.68-5.23a2.68,2.68,0,0,0-2.12-1.88c-1.2-.19-2.3.68-5.74,4.36-2.13,2.29-3.63,4.1-3.75,4.24-1.47,1.78-3.66,4.35-6.55,7.42a3.61,3.61,0,0,1-2.06-.88,3.5,3.5,0,0,1-1.12-1.93,24.38,24.38,0,0,1,2.68-5.18c2.44-3.54,4.84-4.94,4.57-7.29,0-.1-.21-1.57-1.13-1.94s-2.23.59-3.87,2.24a37.77,37.77,0,0,0-5.55,7.36c-2.68,4.39-4.32,7.23-7.38,10.47-.3.32-2.39,2.52-2.87,2.18-.69-.48,3.36-5.07,2.38-10.16-.49-2.55-2.19-5-3.3-4.81s-1,2.76-2.56,7.17c-1.22,3.4-1.82,3.3-3.57,7.23-1.61,3.64-1.58,4.8-3.37,10.23-.71,2.15-1.83,5.35-3.44,9.23-.25,5.79,2.35,11.07,6.84,13.6A13.34,13.34,0,0,0,1106.34,452.26Z" transform="translate(-777 -205.98)" fill="#ffaf80"/><path id="Palm_Print" data-name="Palm Print" d="M1099.41,442.38a18.83,18.83,0,0,0,2.27-10.19,18.29,18.29,0,0,0-1.43-5.91" transform="translate(-777 -205.98)" fill="none" stroke="#c69c6d" stroke-miterlimit="10"/><path id="Palm_Print-2" data-name="Palm Print" d="M1118.9,441.47a24.19,24.19,0,0,0-6.78-10.54,23.7,23.7,0,0,0-7.35-4.48" transform="translate(-777 -205.98)" fill="none" stroke="#c69c6d" stroke-miterlimit="10"/></g><path id="Left_Lower_Arm" data-name="Left Lower Arm" d="M997.47,460.38a15.71,15.71,0,0,0,13.94,27.11q19-6.76,38.5-14.22,27.1-10.36,52.55-21.07a25.2,25.2,0,0,1-7.6-19.37,563.59,563.59,0,0,0-68.08,17.25Q1011.45,455,997.47,460.38Z" transform="translate(-777 -205.98)" fill="#197bbd"/><path id="Shirt" d="M873,344c1.58,11.46,4.32,28.91,9,50,6.45,29.08,10.79,38.46,15,61,3.53,18.9,4.4,33.52,6,62,1.28,22.82,2.42,53.78,2,91a148.44,148.44,0,0,0,38-5c.91-21.4,2-62.42-1-106-1.5-21.48-4-42.32-5-51-1.94-16-2.91-24-5-35-2.68-14.17-4.45-20.08-8-38-2.35-11.88-4-21.63-5-28a179,179,0,0,0-30-2C883.32,343.1,878,343.46,873,344Z" transform="translate(-777 -205.98)" fill="#ddd"/></g><g id="Head"><path id="Hair" d="M867,229a74.46,74.46,0,0,1,8-11,27.78,27.78,0,0,1,5-5c3.42-2.45,6.79-3.14,13-4,9.25-1.29,16.6-1.83,19-2,9.09-.65,13.64-1,15-1a97.82,97.82,0,0,1,23,2c8.73,1.88,13.09,2.82,16,6,7.44,8.14,3.28,22.11,3,23a28.28,28.28,0,0,1-4,8,45.65,45.65,0,0,0-2,5c-2.47,7.43-1.54,12.31-3,21-.47,2.82-1.13,6.57-2,11a76.5,76.5,0,0,0-2-25c-1.11-4.35-2.11-6.43-4-8-2.43-2-4.86-1.95-17-2-1.44,0-6-.28-15-1-4.68-.37-8.5-.74-11-1a66,66,0,0,1-6,4c-3,1.79-4.49,2.29-7,4a41.34,41.34,0,0,0-5,4v20a14.41,14.41,0,0,0-8,3,8.82,8.82,0,0,0-2,2c-2.2,3.24-1.21,7.61,0,13a43.44,43.44,0,0,1,.94,6.14c0,.14,0,.91.06,1.86a50.18,50.18,0,0,1-1,10,21.34,21.34,0,0,1-4,10c0-3.06,0-7.15,0-12,0-8.64-.11-11.38-1-15a36.49,36.49,0,0,0-3-8,211.38,211.38,0,0,0-4-30C866.16,244.35,863,236.37,867,229Z" transform="translate(-777 -205.98)" fill="url(#linear-gradient)"/><path id="Face" d="M898,251a36.56,36.56,0,0,1-5,3c-1.21.67-2.94,1.67-5,3-.19,3.13-.51,6.47-1,10-.55,3.95-1.24,7.63-2,11l-3,2c-.65-5.39-4.85-9.12-9-9s-7,4.11-8,7c-.59,1.78-.4,3.52,0,7a33.33,33.33,0,0,0,3,11,11.28,11.28,0,0,0,4,5,5.53,5.53,0,0,0,3,1,5.23,5.23,0,0,0,3-1,58.14,58.14,0,0,1,0,11c-.22,2.26-.73,6-1,11,0,.86-.08,1.55-.09,2.24-.09,3.86,0,6.7.09,7.76.11,2.35.19,5.9,0,11a28.33,28.33,0,0,0,8,6,29.78,29.78,0,0,0,14,3,34.83,34.83,0,0,0,14-3V330a48.39,48.39,0,0,0,12,3c2.89.34,7.33.85,11,0,11.27-2.62,18.29-18.87,20-30,.69-4.5.42-7.55,2-20,.41-3.24.63-4.61,1-8a130.73,130.73,0,0,0,1-17c-.14-7-.21-10.44-2-12-2.74-2.38-6-.06-15,0a36.09,36.09,0,0,1-3.7-.14A105,105,0,0,1,927,244c-4-.93-11.15-1.49-25,0a7.89,7.89,0,0,1-1,4A10.35,10.35,0,0,1,898,251Z" transform="translate(-777 -205.98)" fill="#ffaf80"/><ellipse id="Eye1" cx="145" cy="71.52" rx="3" ry="5.5" opacity="0.9"/><ellipse id="Eye2" cx="175" cy="71.02" rx="3" ry="5" opacity="0.9"/><path id="Glasses" d="M967,269c-1.19-1.53-3.55-1.69-8-2a40.7,40.7,0,0,0-5,0c-5.65.24-7.59.83-12,1-3.59.14-6.49.06-8,0-5.84-.23-6.8-.8-13-1-4-.13-6.37,0-9,1a17.6,17.6,0,0,0-3.94,2.08q-5.49,1.25-11,2.46Q889,274.31,881,276l1,2,25-4h1a4.88,4.88,0,0,1,1,1,5.73,5.73,0,0,1,1,3c.41,4.11.7,6.76,2.5,8.5a3.12,3.12,0,0,0,.52.45c1.1.69,3,.54,9.48.55,5.93,0,7.57-.06,8.51-.62a2.93,2.93,0,0,0,.49-.38c2.16-1.88,2.11-4.73,2.5-7.5a27.39,27.39,0,0,1,2-7,6.57,6.57,0,0,1,2.5-.5,6.5,6.5,0,0,1,2.5.5,56.66,56.66,0,0,1,2,7c1.16,5.33.64,6.64,2,8,1,1,2,1.06,11,1,6,0,7-.09,8-1,1.29-1.15,1.06-2.3,2-8C967.2,271.72,968.11,270.42,967,269Zm-34,9c-.92,3.86-1.38,5.79-3,7-.48.36-1.36.89-7,1-5.16.1-7.76.13-9-1-.81-.74-1.21-2.83-2-7-.94-5-.74-6.21,0-7s1.48-.82,3-1a57.94,57.94,0,0,1,15,0c1.5.18,2.35.31,3,1C934.31,272.38,933.76,274.82,933,278Zm32-1c-.74,5.05-1.11,7.58-3,9-1.24.93-3.16.95-7,1-4.4.05-6.61.08-8-1-2-1.54-2.34-4.12-3-9-.36-2.66-.54-4,0-5,1.46-2.73,5.82-2.85,11-3,5-.14,8.54-.24,10,2C965.7,272.08,965.48,273.73,965,277Z" transform="translate(-777 -205.98)"/><g id="Expression"><path id="Brow2" d="M912,269a9.62,9.62,0,0,1,5-7,14.34,14.34,0,0,1,10-1,14.7,14.7,0,0,1,4,2,4.23,4.23,0,0,1,2,2c.2.51.47,1.61,0,2-.68.56-2.22-.95-5-2a13.07,13.07,0,0,0-6-1c-2.37.24-4.11,1.28-7,3C913.71,267.77,912.69,268.49,912,269Z" transform="translate(-777 -205.98)" opacity="0.9"/><path id="Brow1" d="M945,267a7.27,7.27,0,0,1,2-4,7.82,7.82,0,0,1,4-2,10.91,10.91,0,0,1,5,0c1.69.34,3.43.69,4,2v0c.48,1.1.46,2.54,0,3-.78.71-2.55-1.53-6-2a11,11,0,0,0-6,1A11.87,11.87,0,0,0,945,267Z" transform="translate(-777 -205.98)" opacity="0.9"/><path id="Nose" d="M940,276a9.72,9.72,0,0,0,1,5c.49.93.73,1,3,4,1.62,2.16,2.12,3,2,4a3.86,3.86,0,0,1-1,2,7.3,7.3,0,0,1-3,2,15.48,15.48,0,0,1-3,1" transform="translate(-777 -205.98)" fill="none" stroke="#c69c6d" stroke-miterlimit="10" stroke-width="2"/><path id="Mouth" d="M924,299a17.72,17.72,0,0,0,4,4,17.18,17.18,0,0,0,7,3,19.74,19.74,0,0,0,6,0,28.7,28.7,0,0,0,5-1" transform="translate(-777 -205.98)" fill="none" stroke="#c69c6d" stroke-linecap="round" stroke-miterlimit="10" stroke-width="2"/><path id="Chin" d="M926,310a16.42,16.42,0,0,0,6,2,16.09,16.09,0,0,0,4,0" transform="translate(-777 -205.98)" fill="none" stroke="#c69c6d" stroke-linecap="round" stroke-miterlimit="10"/></g><path id="Ear" d="M877.67,280.83c.51-.91-1.38-3.92-4.1-4.27a5,5,0,0,0-3.88,1.41,5.58,5.58,0,0,0-1.36,3.6c-.15,1.53.16,2.33,1.14,5.79,1,3.64,1.45,5.39,2.74,7.86,1.07,2.06,1.44,2.11,1.6,2.08.68-.12,1.09-2.53.57-4.64-.32-1.27-.72-1.39-1.49-3-.67-1.42-2.32-4.89-1-6.72a5.07,5.07,0,0,1,3-1.52C876.62,280.92,877.41,281.31,877.67,280.83Z" transform="translate(-777 -205.98)" fill="#c69c6d"/></g></svg>